<svg width="100" height="24" viewBox="0 0 100 24" fill="none" xmlns="http://www.w3.org/2000/svg">
<path d="M35.6476 10.3903C36.0652 10.6266 36.4024 10.9831 36.615 11.4134C36.8593 11.9194 36.9787 12.4767 36.963 13.0385V17.1482H35.1952V13.2786C35.2255 12.8139 35.0762 12.3554 34.7777 11.998C34.631 11.8463 34.4535 11.7278 34.2573 11.6504C34.061 11.5729 33.8504 11.5384 33.6397 11.5491C33.4258 11.5377 33.2119 11.5718 33.0122 11.6492C32.8124 11.7265 32.6314 11.8454 32.481 11.998C32.1787 12.3536 32.0265 12.8128 32.0564 13.2786V17.1482H30.2747V7.79083H32.0425V11.0167C32.2809 10.7054 32.5947 10.4599 32.9542 10.3033C33.3513 10.1255 33.7824 10.0365 34.2174 10.0423C34.7166 10.0296 35.2102 10.1497 35.6476 10.3903Z" fill="#332626"/>
<path d="M38.6264 11.7335C38.8849 11.2143 39.2823 10.7769 39.7747 10.4703C40.2643 10.174 40.8274 10.0209 41.3998 10.0284C41.8828 10.0144 42.3613 10.1221 42.7918 10.3416C43.1606 10.5337 43.4815 10.806 43.7313 11.1385V10.1432H45.5165V17.1482H43.7313V16.1251C43.4895 16.4694 43.1669 16.749 42.7918 16.9394C42.3623 17.1623 41.8835 17.2736 41.3998 17.263C40.8288 17.2697 40.2682 17.1114 39.7852 16.8071C39.2886 16.4951 38.8874 16.0519 38.6264 15.5266C38.3337 14.9355 38.1883 14.2825 38.2018 13.6231C38.1876 12.9681 38.3334 12.3195 38.6264 11.7335ZM43.4634 12.5374C43.3009 12.2451 43.0597 12.004 42.7674 11.8414C42.488 11.6828 42.172 11.5994 41.8505 11.5994C41.5289 11.5994 41.2129 11.6828 40.9335 11.8414C40.6503 12.0089 40.4171 12.2492 40.2584 12.5374C40.0792 12.8743 39.9905 13.252 40.0009 13.6335C39.9912 14.0183 40.0799 14.3992 40.2584 14.7401C40.4213 15.0404 40.6614 15.2916 40.9544 15.4674C41.2272 15.6322 41.5404 15.7189 41.8592 15.718C42.1884 15.7189 42.5113 15.6307 42.7945 15.4629C43.0775 15.295 43.3099 15.0537 43.4668 14.7645C43.6318 14.4189 43.7174 14.0408 43.7174 13.6579C43.7174 13.275 43.6318 12.8969 43.4668 12.5513L43.4634 12.5374Z" fill="#332626"/>
<path d="M48.9894 7.79083V17.1482H47.2216V7.79083H48.9894Z" fill="#332626"/>
<path d="M52.0273 16.8141C51.4938 16.5241 51.0522 16.0901 50.7537 15.5614C50.4394 14.9795 50.2811 14.3261 50.2943 13.6648C50.2801 13.0018 50.4433 12.347 50.7676 11.7683C51.0724 11.2318 51.5206 10.7908 52.0621 10.4947C52.629 10.202 53.2578 10.0493 53.896 10.0493C54.5342 10.0493 55.163 10.202 55.7299 10.4947C56.2731 10.7897 56.7227 11.2309 57.0278 11.7683C57.3522 12.347 57.5154 13.0018 57.5011 13.6648C57.5136 14.3295 57.3452 14.9851 57.0139 15.5614C56.7011 16.0979 56.2456 16.5375 55.6985 16.8315C55.1292 17.1347 54.4924 17.2892 53.8473 17.2804C53.2104 17.2848 52.5834 17.1242 52.0273 16.8141ZM54.752 15.4883C55.0401 15.3272 55.2747 15.0852 55.4271 14.7923C55.6042 14.4374 55.6905 14.0439 55.6777 13.6474C55.6958 13.3691 55.6585 13.09 55.5684 12.826C55.4779 12.5621 55.3366 12.3185 55.1522 12.1094C54.9866 11.9365 54.7872 11.7997 54.5662 11.7075C54.3452 11.6152 54.1075 11.5696 53.8681 11.5735C53.6305 11.5679 53.3945 11.6128 53.1756 11.7052C52.9568 11.7976 52.7598 11.9353 52.598 12.1094C52.2326 12.5353 52.0492 13.0876 52.0864 13.6474C52.0489 14.2039 52.227 14.7536 52.5841 15.1821C52.7431 15.3572 52.9376 15.496 53.1551 15.5891C53.3726 15.6822 53.6075 15.7273 53.8438 15.7214C54.1615 15.7216 54.4736 15.6414 54.752 15.4883Z" fill="#332626"/>
<path d="M68.5148 10.1432L66.4652 17.1482H64.5548L63.2811 12.2555L62.004 17.1482H60.0797L58.0196 10.1432H59.8152L61.054 15.4813L62.3938 10.1432H64.2659L65.5813 15.4674L66.8132 10.1432H68.5148Z" fill="#332626"/>
<path d="M75.9374 14.1694H70.8185C70.8296 14.6206 71.0155 15.0498 71.337 15.3665C71.6509 15.6535 72.0636 15.8081 72.4888 15.798C72.7794 15.8127 73.0675 15.7395 73.3156 15.5881C73.5641 15.4366 73.7611 15.2139 73.8808 14.9489H75.7912C75.5984 15.6094 75.1982 16.1902 74.6498 16.6053C74.0381 17.0519 73.2944 17.281 72.5375 17.2561C71.9035 17.2663 71.2775 17.1116 70.7211 16.8072C70.1956 16.518 69.7624 16.0861 69.4718 15.5614C69.1638 14.9774 69.0097 14.3249 69.0229 13.6649C69.0048 12.9941 69.1565 12.3296 69.4648 11.7335C69.745 11.2001 70.1758 10.7609 70.7037 10.4704C71.2646 10.1844 71.8854 10.0353 72.5149 10.0353C73.1444 10.0353 73.7652 10.1844 74.3262 10.4704C74.8457 10.7493 75.2727 11.1738 75.5546 11.6918C75.8518 12.2492 76.0014 12.8733 75.9896 13.5048C75.9906 13.7274 75.9732 13.9497 75.9374 14.1694ZM74.1557 12.9828C74.1599 12.7754 74.1177 12.5696 74.0321 12.3805C73.9469 12.1915 73.8202 12.0239 73.6615 11.8901C73.3341 11.6115 72.9151 11.464 72.4853 11.476C72.0792 11.4655 71.6843 11.6084 71.3788 11.8762C71.0663 12.1654 70.8707 12.5591 70.8289 12.9828H74.1557Z" fill="#332626"/>
<path d="M77.2527 11.7335C77.512 11.2138 77.9108 10.7764 78.4046 10.4703C78.8966 10.1736 79.4621 10.0217 80.0366 10.0319C80.5127 10.0208 80.9838 10.1285 81.4077 10.3451C81.7773 10.5372 82.0995 10.8095 82.3507 11.1419V10.1432H84.1359V17.1482H82.3507V16.1251C82.1054 16.4763 81.7766 16.7609 81.3938 16.9533C80.9647 17.1769 80.4855 17.2883 80.0018 17.2769C79.4322 17.2835 78.8726 17.1252 78.3907 16.8211C77.9007 16.501 77.5075 16.0535 77.2527 15.5266C76.9629 14.9346 76.8185 14.282 76.8317 13.6231C76.8178 12.9685 76.9625 12.3203 77.2527 11.7335ZM82.0932 12.5374C81.9307 12.2451 81.6896 12.004 81.3973 11.8414C81.1168 11.68 80.7987 11.5959 80.4751 11.5978C80.1553 11.5952 79.8404 11.6781 79.5634 11.8379C79.2794 12.0045 79.0463 12.245 78.8883 12.5339C78.7077 12.8705 78.6179 13.2482 78.6273 13.63C78.6186 14.0151 78.7084 14.396 78.8883 14.7366C79.0511 15.0369 79.2912 15.2881 79.5842 15.4639C79.8571 15.6288 80.1703 15.7154 80.489 15.7145C80.8182 15.7154 81.1411 15.6273 81.4244 15.4594C81.7073 15.2915 81.9398 15.0502 82.0967 14.761C82.2616 14.4154 82.3473 14.0373 82.3473 13.6544C82.3473 13.2715 82.2616 12.8934 82.0967 12.5478L82.0932 12.5374Z" fill="#332626"/>
<path d="M88.7745 15.5196L90.5458 10.1432H92.4284L89.8359 17.1482H87.6923L85.1137 10.1432H86.9963L88.7745 15.5196Z" fill="#332626"/>
<path d="M99.8892 14.1694H94.7668C94.7832 14.6202 94.9742 15.0469 95.2993 15.3596C95.6131 15.6465 96.0259 15.8011 96.4511 15.7911C96.7417 15.8057 97.0298 15.7326 97.2779 15.5811C97.5264 15.4297 97.7233 15.207 97.843 14.942H99.7535C99.5593 15.6073 99.1539 16.1912 98.5982 16.6053C97.9878 17.0519 97.2452 17.281 96.4894 17.2561C95.8553 17.2663 95.2293 17.1116 94.6729 16.8072C94.1422 16.5126 93.7072 16.0717 93.4201 15.537C93.1122 14.9531 92.958 14.3005 92.9712 13.6405C92.9587 12.9781 93.1108 12.323 93.4132 11.7335C93.6954 11.2025 94.1259 10.7649 94.652 10.4738C95.213 10.1879 95.8338 10.0388 96.4633 10.0388C97.0928 10.0388 97.7136 10.1879 98.2745 10.4738C98.7941 10.7519 99.22 11.1767 99.4994 11.6953C99.7994 12.2518 99.9504 12.8763 99.9379 13.5083C99.94 13.7296 99.9236 13.9508 99.8892 14.1694ZM98.1075 12.9828C98.1117 12.7754 98.0696 12.5696 97.984 12.3805C97.8987 12.1915 97.772 12.0239 97.6134 11.8901C97.2859 11.6115 96.8669 11.464 96.4372 11.476C96.0363 11.4718 95.6479 11.6169 95.348 11.8832C95.0355 12.1724 94.8399 12.5661 94.7982 12.9898L98.1075 12.9828Z" fill="#332626"/>
<path d="M2.18187 12.5061C2.6934 24.8943 20.3432 24.8909 20.8548 12.5061C20.8548 11.28 20.6133 10.0659 20.1441 8.93316C19.6748 7.80043 18.9872 6.77116 18.1202 5.90419C17.2532 5.03722 16.224 4.34953 15.0912 3.8803C13.9585 3.41111 12.7444 3.16962 11.5183 3.16962C10.2922 3.16962 9.07817 3.41111 7.94541 3.8803C6.81265 4.34953 5.78341 5.03722 4.91644 5.90419C4.04947 6.77116 3.36176 7.80043 2.89256 8.93316C2.42336 10.0659 2.18187 11.28 2.18187 12.5061ZM19.8143 12.5061C19.8143 14.7063 18.9403 16.8164 17.3844 18.3722C15.8286 19.928 13.7185 20.802 11.5183 20.802C9.31807 20.802 7.20796 19.928 5.65219 18.3722C4.09638 16.8164 3.22234 14.7063 3.22234 12.5061C3.67821 1.49929 19.3584 1.50277 19.8143 12.5061Z" fill="#332626"/>
<path d="M6.74744 0.963379L0 7.71083V17.2526L6.74744 24H16.2892L23.0366 17.2526V7.71083L16.2892 0.963379H6.74744ZM22.0762 16.8559L15.8925 23.0396H7.14414L0.96044 16.8559V8.1075L7.14414 1.92382H15.8925L22.0762 8.1075V16.8559Z" fill="#332626"/>
<path d="M21.85 0.250003C21.476 0.249315 21.1102 0.359638 20.7989 0.567001C20.4876 0.774365 20.2449 1.06944 20.1015 1.41485C19.958 1.76026 19.9203 2.14048 19.9931 2.50734C20.0659 2.87421 20.2459 3.21121 20.5104 3.47568C20.7749 3.74015 21.1119 3.9202 21.4787 3.993C21.8456 4.0658 22.2258 4.02808 22.5712 3.88464C22.9166 3.74116 23.2117 3.49844 23.4191 3.18717C23.6264 2.8759 23.7368 2.5101 23.7361 2.13608C23.7352 1.63615 23.5362 1.15695 23.1826 0.803439C22.8291 0.44993 22.35 0.250923 21.85 0.250003ZM21.85 3.0826C21.6626 3.08329 21.4793 3.02837 21.3232 2.92478C21.1671 2.82119 21.0452 2.67361 20.973 2.50072C20.9009 2.32783 20.8816 2.13741 20.9177 1.95357C20.9539 1.76973 21.0438 1.60075 21.176 1.46803C21.3082 1.33531 21.4769 1.24482 21.6606 1.20801C21.8443 1.17121 22.0348 1.18975 22.2079 1.26128C22.3811 1.33282 22.5291 1.45414 22.6333 1.60986C22.7374 1.76559 22.793 1.94873 22.793 2.13608C22.793 2.38652 22.6938 2.62674 22.5171 2.80415C22.3403 2.98156 22.1004 3.08168 21.85 3.0826Z" fill="#332626"/>
</svg>
